<?xml version="1.0" standalone="no"?>
<!DOCTYPE svg PUBLIC "-//W3C//DTD SVG 20010904//EN"
 "http://www.w3.org/TR/2001/REC-SVG-20010904/DTD/svg10.dtd">
<svg version="1.0" xmlns="http://www.w3.org/2000/svg"
 width="512.000000pt" height="512.000000pt" viewBox="0 0 512.000000 512.000000"
 preserveAspectRatio="xMidYMid meet">
<metadata>
Created by potrace 1.11, written by Peter Selinger 2001-2013
</metadata>
<g transform="translate(0.000000,512.000000) scale(0.100000,-0.100000)"
fill="#000000" stroke="none">
<path d="M2266 4894 c-318 -41 -654 -158 -916 -319 -596 -366 -987 -945 -1106
-1635 -24 -143 -30 -513 -10 -663 69 -522 287 -974 645 -1340 323 -331 694
-544 1131 -650 951 -232 1958 160 2499 973 208 311 318 604 383 1015 19 123
16 474 -6 620 -79 524 -322 999 -697 1360 -378 364 -861 589 -1381 645 -133
14 -410 11 -542 -6z m957 -1074 c129 -40 235 -147 277 -280 17 -57 24 -142 50
-660 32 -626 37 -882 19 -990 -13 -82 -54 -172 -108 -232 l-41 -46 0 -109 c0
-120 -13 -160 -63 -197 -26 -19 -43 -21 -171 -21 -120 0 -146 3 -169 18 -50
32 -67 73 -67 160 l0 77 -405 0 -405 0 0 -72 c0 -83 -18 -129 -63 -162 -26
-19 -43 -21 -171 -21 -158 0 -179 7 -216 68 -17 27 -20 51 -20 161 l0 128 -30
35 c-40 45 -75 117 -89 181 -19 91 -12 493 19 1077 32 610 34 624 99 718 58
84 127 134 231 168 50 16 109 18 656 18 576 1 605 0 667 -19z m-1785 -546 c21
-15 22 -20 22 -213 0 -240 2 -236 -98 -236 -106 0 -102 -8 -102 231 0 198 0
203 22 218 14 10 44 16 78 16 34 0 64 -6 78 -16z m2412 -4 c19 -19 20 -33 20
-210 l0 -191 -26 -26 c-23 -23 -31 -25 -86 -21 -96 7 -98 11 -98 239 0 228 0
229 105 229 52 0 69 -4 85 -20z"/>
<path d="M2300 3710 c-14 -14 -20 -33 -20 -68 0 -82 -1 -82 277 -82 277 0 273
-1 273 87 0 83 2 83 -273 83 -224 0 -238 -1 -257 -20z"/>
<path d="M1739 3443 c0 -16 -11 -215 -23 -443 -12 -228 -21 -418 -19 -422 2
-5 389 -8 859 -8 l854 0 0 53 c0 28 -9 221 -20 427 -11 206 -20 385 -20 398
l0 22 -815 0 -815 0 -1 -27z"/>
<path d="M1965 2126 c-88 -39 -121 -146 -70 -231 29 -51 75 -75 142 -75 90 0
155 67 155 161 0 116 -120 192 -227 145z"/>
<path d="M3003 2119 c-149 -74 -95 -299 72 -299 124 0 199 121 143 230 -42 82
-131 111 -215 69z"/>
</g>
</svg>
